<svg xmlns="http://www.w3.org/2000/svg" viewBox="0 0 1280 720" width="1280" height="720" font-family="Segoe UI, Helvetica, Arial, sans-serif"><defs><marker id="ah" markerWidth="10" markerHeight="10" refX="7" refY="3" orient="auto"><path d="M0,0 L7,3 L0,6 Z" fill="#5eead4"/></marker><filter id="glow" x="-40%" y="-40%" width="180%" height="180%"><feGaussianBlur stdDeviation="5" result="b"/><feMerge><feMergeNode in="b"/><feMergeNode in="SourceGraphic"/></feMerge></filter><pattern id="grid" width="40" height="40" patternUnits="userSpaceOnUse"><path d="M40 0 H0 V40" fill="none" stroke="#10262b" stroke-width="1"/></pattern></defs><rect width="1280" height="720" fill="#0c1a1d"/><rect width="1280" height="720" fill="url(#grid)"/><text x="48" y="58" fill="#eafffb" font-size="26" font-weight="800">How Acquire works — the architecture</text><text x="48" y="84" fill="#8fc9c1" font-size="15">Step 4 of 7</text><g><rect x="60" y="300" width="240" height="170" rx="14" fill="#143038" stroke="#2dd4bf" stroke-width="2"/><circle cx="88" cy="332" r="8" fill="#2dd4bf"/><text x="108" y="338" fill="#eafffb" font-size="20" font-weight="700">Browser</text><text x="80" y="452" fill="#8fc9c1" font-size="14">the player · React SPA</text></g><g><rect x="632" y="150" width="180" height="110" rx="14" fill="#143038" stroke="#2dd4bf" stroke-width="2"/><circle cx="660" cy="182" r="8" fill="#2dd4bf"/><text x="680" y="188" fill="#eafffb" font-size="20" font-weight="700">React SPA</text><text x="652" y="242" fill="#8fc9c1" font-size="14">HTML · JS · CSS (static)</text></g><g><rect x="1012" y="150" width="200" height="110" rx="14" fill="#143038" stroke="#2dd4bf" stroke-width="2"/><circle cx="1040" cy="182" r="8" fill="#2dd4bf"/><text x="1060" y="188" fill="#eafffb" font-size="20" font-weight="700">Backend API</text><text x="1032" y="242" fill="#8fc9c1" font-size="14">game rules · the referee</text></g><g filter="url(#glow)"><rect x="1012" y="500" width="200" height="110" rx="14" fill="#143038" stroke="#5eead4" stroke-width="3"/><circle cx="1040" cy="532" r="8" fill="#5eead4"/><text x="1060" y="538" fill="#eafffb" font-size="20" font-weight="700">PostgreSQL</text><text x="1032" y="592" fill="#8fc9c1" font-size="14">the memory</text></g><path d="M 632,205 L 308,365" fill="none" stroke="#5eead4" stroke-width="2.4" marker-end="url(#ah)"/><path d="M 300,385 L 900,385 L 900,205 L 1012,205" fill="none" stroke="#5eead4" stroke-width="2.4" marker-end="url(#ah)" marker-start="url(#ah)"/><path d="M 994,230 L 980,230 L 980,540 L 1012,540" fill="none" stroke="#5eead4" stroke-width="2.4" marker-end="url(#ah)" marker-start="url(#ah)"/><g><rect x="371" y="328.0" width="191" height="26" rx="13" fill="#0c1a1d" stroke="#1f4d54" stroke-width="1"/><text x="466" y="346.0" fill="#8fc9c1" font-size="13" text-anchor="middle">download HTML / JS / CSS</text></g><g><rect x="526" y="192" width="148" height="26" rx="13" fill="#0c1a1d" stroke="#1f4d54" stroke-width="1"/><text x="600" y="210" fill="#8fc9c1" font-size="13" text-anchor="middle">HTTPS · REST  /api</text></g><g><rect x="952" y="367.0" width="40" height="26" rx="13" fill="#0c1a1d" stroke="#1f4d54" stroke-width="1"/><text x="972" y="385.0" fill="#8fc9c1" font-size="13" text-anchor="middle">SQL</text></g></svg>